<?xml version="1.0" encoding="utf-8"?>
<!-- Svg Vector Icons : http://www.onlinewebfonts.com/icon -->
<!DOCTYPE svg PUBLIC "-//W3C//DTD SVG 1.1//EN" "http://www.w3.org/Graphics/SVG/1.1/DTD/svg11.dtd">
<svg version="1.1" xmlns="http://www.w3.org/2000/svg" xmlns:xlink="http://www.w3.org/1999/xlink" x="0px" y="0px" viewBox="0 0 1000 1000" enable-background="new 0 0 1000 1000" xml:space="preserve">
<metadata> Svg Vector Icons : http://www.onlinewebfonts.com/icon </metadata>
<g><g transform="translate(0.000000,511.000000) scale(0.100000,-0.100000)"><path d="M4714.9,4998.9C2639.5,4886.6,831.3,3428.8,281.5,1425.1C-130.8-75.2,165.4-1618.2,1108.2-2872.7c160.7-214.9,615.6-681.5,818.9-842.1c718.2-563.3,1492.6-898.3,2381.2-1033.8c321.4-50.4,1066.7-50.4,1384.2-2c1632,251.7,2996.8,1241,3705.4,2692.9c243.9,497.5,375.6,921.5,458.8,1465.5c48.4,329.1,58.1,956.4,19.4,1256.4c-120,923.5-427.8,1684.3-973.8,2416.1c-180,242-687.3,747.3-931.2,931.2C7010.9,4729.8,5911.3,5062.8,4714.9,4998.9z M5539.6,3982.5c1031.9-143.3,1966.9-695,2590.3-1527.5c398.8-532.4,648.6-1130.6,747.3-1800.4c42.6-284.6,42.6-820.8,0-1103.5c-189.7-1252.6-940.9-2319.3-2046.3-2903.9c-1508.1-795.7-3366.6-522.7-4574.6,677.6C817.8-1250.3,693.9,999.2,1967.8,2573.2c613.7,758.9,1512,1268,2481.9,1409.4C4712.9,4019.3,5272.4,4021.2,5539.6,3982.5z"/><path d="M3549.4,3061c-11.6-13.5-100.7-162.6-197.5-331l-178.1-305.9L3309.4,765c75.5-911.8,137.5-1670.7,137.5-1684.3c0-46.5,92.9-120,151-120c69.7,0,122,56.2,185.9,195.5c116.2,251.7,176.2,627.2,160.7,985.4c-17.4,369.8-168.4,2751-180,2820.7c-5.8,34.8-23.2,75.5-38.7,92.9C3688.8,3090,3574.6,3093.9,3549.4,3061z"/><path d="M6631.5,1558.7c-31-21.3-69.7-50.3-85.2-67.8c-23.2-29-135.5-534.3-137.4-617.6c0-48.4,69.7-112.3,122-112.3c151,0,480.1-269.1,650.5-530.4c73.6-110.4,182-340.7,168.4-354.3c-1.9-1.9-69.7-19.4-149.1-34.8C6856-232,6246.2-270.8,6132-228.2c-34.8,13.6-50.3,36.8-58.1,94.9c-15.5,89.1-52.3,123.9-162.6,154.9C5748.7,68,5700.3-5.5,5622.9-414c-65.8-358.2,31-547.9,317.5-607.9c168.4-34.8,770.5-11.6,1068.7,40.6c325.2,56.2,528.5,123.9,578.8,185.9c58.1,73.6,149.1,323.3,187.8,511.1c81.3,404.6-34.8,863.4-334.9,1312.6c-122,183.9-350.4,424-485.9,509.2C6848.3,1605.2,6720.5,1612.9,6631.5,1558.7z"/><path d="M4573.5,151.3c-236.2-65.8-265.2-118.1-265.2-503.3c0-273,3.9-298.1,48.4-387.2c63.9-123.9,172.3-183.9,329.1-183.9c92.9,0,127.8,11.6,228.4,73.6c158.8,94.9,358.1,274.9,396.9,358.2c48.4,100.7,77.4,325.3,54.2,414.3C5344.1,4.2,5255,99,5156.3,149.3C5076.9,190,4720.7,190,4573.5,151.3z"/><path d="M3501-1182.6c-114.2-31-214.9-96.8-336.9-220.7c-251.7-255.5-309.8-515-154.9-693.1l63.9-73.6l-44.5-102.6c-56.1-123.9-58.1-201.3-11.6-243.9c52.3-48.4,172.3-92.9,211-77.4c19.4,5.8,81.3,62,137.4,123.9c108.4,120,182,156.8,466.6,232.3c81.3,23.2,156.8,50.3,170.4,61.9c42.6,42.6,162.6,369.8,151,414.3c-5.8,25.2-31,58.1-56.1,73.6c-42.6,29-56.1,29-160.7-1.9c-61.9-17.4-123.9-36.8-139.4-42.6c-15.5-5.8-3.9,23.2,27.1,62c75.5,98.7,91,278.8,31,373.6C3787.6-1188.4,3652-1143.9,3501-1182.6z M3619.1-1720.8l69.7-44.5l-91-5.8c-94.9-5.8-220.7,40.6-199.4,73.6C3419.7-1662.7,3547.5-1678.2,3619.1-1720.8z"/></g></g>
</svg>