<?xml version="1.0" encoding="utf-8"?>
<!-- Svg Vector Icons : http://www.onlinewebfonts.com/icon -->
<!DOCTYPE svg PUBLIC "-//W3C//DTD SVG 1.1//EN" "http://www.w3.org/Graphics/SVG/1.1/DTD/svg11.dtd">
<svg version="1.1" xmlns="http://www.w3.org/2000/svg" xmlns:xlink="http://www.w3.org/1999/xlink" x="0px" y="0px" viewBox="0 0 1000 1000" enable-background="new 0 0 1000 1000" xml:space="preserve">
<metadata> Svg Vector Icons : http://www.onlinewebfonts.com/icon </metadata>
<g><g transform="translate(0.000000,511.000000) scale(0.100000,-0.100000)"><path d="M4553.5,4994.1c-954.8-91-1861.2-453.2-2604.9-1042c-193.7-153-550-503.6-730.2-718.5C629.6,2530.5,234.5,1602.8,126,665.5C79.6,274.2,97-335.8,164.8-717.4C310-1544.4,649-2303.6,1171.9-2964c158.8-201.4,588.8-625.6,786.3-778.6c668.2-515.2,1419.6-850.2,2211.8-981.9c1379-232.4,2750.2,116.2,3869.6,981.9c201.4,156.9,629.4,581,786.3,778.6c292.5,371.9,577.2,863.8,743.7,1284.1c364.1,929.6,430,2008.4,184,2996.2c-168.5,672.1-534.5,1392.5-974.2,1917.4c-342.8,408.7-815.4,815.4-1262.8,1084.6C6643.2,4845,5564.5,5090.9,4553.5,4994.1z M5349.5,4008.3c933.5-91,1766.3-484.2,2419-1140.7c590.7-594.6,941.3-1274.4,1094.3-2122.7c50.4-277,60-803.8,21.3-1107.8c-193.7-1514.5-1210.5-2759.9-2649.5-3242.1c-786.3-263.4-1685-263.4-2471.3,0C2324.3-3122.8,1307.5-1879.4,1113.8-363c-38.7,304.1-29.1,830.9,21.3,1107.8c201.4,1127.2,815.4,2054.9,1768.3,2672.7c211.1,135.6,623.6,329.2,885.1,414.5C4293.9,3996.7,4840.1,4058.6,5349.5,4008.3z"/><path d="M7071.2,1579.6v-180.1l-73.6-13.5c-118.2-17.4-340.9-139.5-420.3-226.6c-40.7-44.5-94.9-129.8-124-189.8c-42.6-93-50.4-133.6-50.4-292.5c0-160.7,7.8-199.5,56.2-306C6558,158,6769.1,8.9,7158.4-117c397-129.8,513.2-226.6,513.2-424.1c0-73.6-11.6-127.8-38.7-172.4c-96.8-158.8-449.3-215-660.4-104.6c-118.2,60-191.7,172.4-191.7,294.4c0,114.3-9.7,118.2-253.7,112.3l-220.8-5.8l1.9-139.5c7.8-331.2,263.4-612,629.4-687.5l114.3-23.2v-160.8v-160.7H7232c114.3,0,187.9,7.8,203.4,23.2c13.6,13.6,23.3,79.4,23.3,160.7v139.5l106.5,23.2c255.7,58.1,476.4,224.7,553.9,424.1c67.8,170.4,62,418.3-11.6,581c-96.8,215-300.2,356.4-714.7,495.8C7044.1,376.9,6931.8,450.5,6895,586c-42.6,162.7,23.2,321.5,164.6,395.1c83.3,42.6,311.8,42.6,393.2,0c110.4-58.1,199.5-215,199.5-352.5c0-116.2,23.2-127.8,261.5-122l213,5.8l5.8,104.6c19.4,348.6-259.5,705-600.4,767l-73.6,13.6v182.1v182.1h-193.7h-193.7V1579.6z"/><path d="M2734.9,1387.9c-131.7-46.5-156.9-100.7-557.8-1235.6c-435.8-1233.7-439.6-1247.3-311.8-1365.4c85.2-77.5,176.2-87.1,253.7-27.1c50.4,40.7,120.1,199.5,209.2,480.3l44.5,139.4h478.4h478.4l63.9-187.9c32.9-104.6,81.3-234.3,104.6-288.6c83.3-187.9,222.7-236.3,350.6-118.1c100.7,91,104.6,168.5,21.3,420.3c-100.7,306-668.2,1874.8-714.7,1979.4C3068,1378.2,2916.9,1451.8,2734.9,1387.9z M3021.5,334.3c87.2-269.2,162.7-503.6,168.5-519.1c9.7-25.2-34.9-29.1-340.9-29.1c-273.1,0-350.6,5.8-342.8,25.2c3.9,11.6,81.3,251.8,170.4,530.7c89.1,278.9,168.5,501.6,174.3,493.9C2856.9,828.1,2934.3,601.5,3021.5,334.3z"/><path d="M4361.7,1349.1c-54.2-15.5-100.7-42.6-125.9-77.5c-40.7-54.2-40.7-73.6-46.5-1191.1c-5.8-1266.6-5.8-1270.5,118.1-1332.5c75.5-40.7,195.6-25.2,255.7,31c71.7,67.8,87.2,180.1,87.2,656.6V-117h122c288.6,0,383.5-85.2,641.1-561.7c247.9-460.9,298.3-538.4,364.1-573.3c143.3-73.6,325.4,29,325.4,182c-1.9,209.2-327.3,774.7-546.2,949c-71.7,56.2-77.5,81.3-17.4,81.3c60,0,263.4,112.3,338.9,184c40.7,40.7,98.8,124,125.9,182.1c44.6,96.8,50.4,131.7,50.4,321.5c0,189.8-5.8,224.7-50.4,321.5c-118.1,249.8-284.7,358.3-592.6,387.3C5136.4,1380.1,4464.4,1376.2,4361.7,1349.1z M5366.9,948.2c189.8-52.3,284.7-298.3,195.6-495.8c-69.7-153-222.7-201.4-641.1-201.4h-271.1v358.3v358.3h325.4C5153.9,967.6,5330.1,957.9,5366.9,948.2z"/></g></g>
</svg>