<svg xmlns="http://www.w3.org/2000/svg" width="2500" height="2500" viewBox="0 0 570.09 570.09"><defs><radialGradient id="a" cx="282.67" cy="281.84" r="291.11" gradientUnits="userSpaceOnUse"><stop offset=".07" stop-color="#ffba73"/><stop offset=".91" stop-color="#fd9f43"/></radialGradient></defs><title>BitcoinV</title><circle cx="285.04" cy="285.04" r="285.04" fill="url(#a)"/><path d="M274.37 101.92a39 39 0 0 1 9.32 1c6.38 1.7 13.08 2.81 18.79 6.33-2.57 14.39-7 28.37-10 42.67a26.17 26.17 0 0 0-.18 5.87c8 2.37 16.12 5.14 24.5 5.19 3.32-7.64 4.42-16 6.72-23.95 2.07-7.07 3.16-14.46 6.07-21.24 1.23-3.19 5.24-1.61 7.82-1.56a208.14 208.14 0 0 1 21 6.14c0 7.31-2.82 14.15-4.28 21.21-1.92 8.73-4.86 17.28-5.9 26.18-.58 2.47 1.31 4.52 3.54 5.22 12.81 4.91 25.89 10.11 36.65 18.83 6.7 6.16 13.47 12.73 17.22 21.18 1.77 4 3.62 8.16 3.63 12.62.13 5 .07 10 0 15 0 7-2.45 13.76-5.18 20.13-3.72 8.51-10.48 15.32-18.09 20.46-4.4 3-9.54 4.47-14.22 6.91 3 3.55 7.28 5.51 10.77 8.46 10.54 8.15 18.72 19.91 20.51 33.31 1.25 15.11-2.47 30.34-9.09 43.87a65.32 65.32 0 0 1-23.83 26.57 74.94 74.94 0 0 1-37.48 9q-7 0-14.06-.08c-9.93 0-19.57-3.23-29.49-3.07a35 35 0 0 0-2.67 6.85c-3.05 11.64-5.84 23.35-9 35-.9 2.54-1.44 5.58-3.65 7.34-5 .32-9.83-1.45-14.65-2.57-3.68-1-7.55-1.68-10.8-3.76-1-4.37-.37-9 .66-13.34 2.55-9.89 5.21-19.76 7.41-29.73a33.65 33.65 0 0 0 .73-6.86c-7.72-3.72-16.33-5.25-24.68-6.91-2.52 6.83-3.89 14-5.8 21-2.59 9.58-4.93 19.24-6.94 29a25.7 25.7 0 0 1-8.76-1.05c-7-2-14.37-2.8-20.92-6.1.15-4.24 1.55-8.28 2.58-12.36 2.79-10.19 4.75-20.59 7.52-30.79a34.65 34.65 0 0 0 1.11-7.29 28.64 28.64 0 0 0-3.87-1.86c-18.81-5-37.79-9.41-56.5-14.77-.2-5 2.62-9.29 4.43-13.74 3.11-6.61 5.25-13.69 9.1-19.94 10.19-.49 19.78 6.12 30.09 3.6 4.77-1.8 7-6.86 8.08-11.5 10.74-43.22 21.19-86.51 32.37-129.62 1.94-6.47 2.26-14.4-2.92-19.5-8.16-7.85-20.57-6.71-30-12a35.61 35.61 0 0 1 1-11.64c1.64-5.9 2.6-12.05 5.32-17.6a41.89 41.89 0 0 1 14.59 1.83c14.78 3.55 29.39 7.78 44.27 10.86 2.67.88 4.28-2 4.75-4.17 3.27-11.91 6-23.95 9.14-35.9a42.53 42.53 0 0 1 3.28-8.66m5.27 106.81c-3.34 13-6.36 26.14-9.8 39.15a30 30 0 0 0-.86 8.45c11.26 5 23.68 6.33 35.69 8.45 9.9.77 20.29 1.18 29.56-3 9.4-3.31 15-13.42 15-23.07.21-4.95.13-10.23-2.8-14.47-6.26-10.63-18.05-15.75-28.85-20.5-10.64-4.13-21.84-6.75-33-8.8-3.26 3.88-3.67 9.09-4.9 13.81M254 311.92c-1.59 6.15-3.21 12.3-4.62 18.49-1.9 8.52-4.75 16.8-6.42 25.38a20.72 20.72 0 0 0 8.06 3.55q15.9 3.78 31.93 6.93c6.81 1.48 13.83.8 20.74 1a46.28 46.28 0 0 0 21-4.55c9.37-4.53 14.86-14.87 15.44-25s-5.66-19.26-13.34-25.2c-13.43-10.6-30.28-15.08-46.5-19.46-6.51-1.56-13-3.6-19.68-4-3.4 7.22-4.52 15.2-6.61 22.86zM500.24 116.94a19.63 19.63 0 0 1 3.36-7.62c4.45 15.43 7.3 31.28 11.49 46.78 7.24 30.31 14.88 60.52 22.24 90.79 1.65 7 4 13.85 4.92 21-6.53 1.51-13.19 2.39-19.77 3.7a33.54 33.54 0 0 1-7.07.52c-2.7-5.67-3.2-12-5-18-2.19-7.51-2.94-15.54-6.75-22.51a108.62 108.62 0 0 0-4 14.19c-11.33 43.91-21.85 88-33 132-3.28 14.85-7.66 29.41-10.66 44.31a29.07 29.07 0 0 1-2.45 7.32 54.16 54.16 0 0 1-8.51-2.26c-6.29-2.23-12.8-3.79-19-6.21a34.15 34.15 0 0 1 1.16-7.72c5.6-21.88 10.84-43.85 16.33-65.75 4.84-21.47 11-42.62 15.86-64.08 9.47-37.35 18.51-74.8 27.93-112.15 4.48-18.07 9.06-36.11 12.92-54.31zM113.25 152.13a72.58 72.58 0 0 1 3.38-12.13 40.49 40.49 0 0 1 8.66 2.21c6.25 2.3 12.8 3.67 19 6.19.09 6-2.47 11.54-3.65 17.32-9.18 37.74-18.6 75.43-27.93 113.13-8.13 30.83-15.15 61.94-23.2 92.8-6.83 28.54-14.49 56.89-20.63 85.6-1.11-.09-2.23-.13-3.34-.13-6.7-32.29-15.63-64.07-23-96.21-4.7-17.27-8-34.88-13.11-52A42.06 42.06 0 0 1 28 301.3c6.24-1.36 12.58-2.21 18.83-3.53a32.19 32.19 0 0 1 8.08-.55c2.87 5.87 3.36 12.5 5.32 18.68 2.19 7.16 2.72 14.91 6.33 21.57 2.11-5 3.16-10.34 4.42-15.59 11.79-45 22.2-90.26 33.77-135.28 2.6-11.55 5.93-22.92 8.5-34.47z" fill="#fdfdfd"/></svg>