<?xml version="1.0" encoding="iso-8859-1"?>
<!-- Generator: Adobe Illustrator 19.0.0, SVG Export Plug-In . SVG Version: 6.00 Build 0)  -->
<svg version="1.1" id="Layer_1" xmlns="http://www.w3.org/2000/svg" xmlns:xlink="http://www.w3.org/1999/xlink" x="0px" y="0px"
	 viewBox="0 0 330 330" style="enable-background:new 0 0 330 330;" xml:space="preserve">
<g id="XMLID_238_">
	<path id="XMLID_239_" d="M270,151.505V62.576c17.458,6.192,30,22.865,30,42.419c0,8.284,6.716,15,15,15c8.284,0,15-6.716,15-15
		c0-36.219-25.808-66.522-60-73.491v-16.5c0-8.284-6.716-15-15-15c-8.284,0-15,6.716-15,15v16.5c-34.192,6.968-60,37.271-60,73.491
		s25.808,66.522,60,73.491v88.929c-17.459-6.192-30-22.865-30-42.419c0-8.284-6.716-15-15-15c-8.284,0-15,6.716-15,15
		c0,36.219,25.808,66.522,60,73.491v16.509c0,8.284,6.716,15,15,15c8.284,0,15-6.716,15-15v-16.509
		c34.192-6.968,60-37.271,60-73.491S304.192,158.473,270,151.505z M210,104.996c0-19.555,12.541-36.228,30-42.419v84.839
		C222.541,141.223,210,124.55,210,104.996z M270,267.415v-84.839c17.458,6.192,30,22.865,30,42.419S287.458,261.223,270,267.415z"/>
	<path id="XMLID_243_" d="M75,60.004c24.813,0,45,20.187,45,45c0,8.284,6.716,15,15,15s15-6.716,15-15c0-41.355-33.645-75-75-75
		s-75,33.645-75,75v120c0,41.355,33.645,75,75,75s75-33.645,75-75c0-8.284-6.716-15-15-15s-15,6.716-15,15c0,24.813-20.187,45-45,45
		s-45-20.187-45-45v-120C30,80.191,50.187,60.004,75,60.004z"/>
</g>
<g>
</g>
<g>
</g>
<g>
</g>
<g>
</g>
<g>
</g>
<g>
</g>
<g>
</g>
<g>
</g>
<g>
</g>
<g>
</g>
<g>
</g>
<g>
</g>
<g>
</g>
<g>
</g>
<g>
</g>
</svg>
