<?xml version="1.0" encoding="iso-8859-1"?>
<!-- Generator: Adobe Illustrator 17.1.0, SVG Export Plug-In . SVG Version: 6.00 Build 0)  -->
<!DOCTYPE svg PUBLIC "-//W3C//DTD SVG 1.1//EN" "http://www.w3.org/Graphics/SVG/1.1/DTD/svg11.dtd">
<svg version="1.1" id="Capa_1" xmlns="http://www.w3.org/2000/svg" xmlns:xlink="http://www.w3.org/1999/xlink" x="0px" y="0px"
	 viewBox="0 0 465 465" style="enable-background:new 0 0 465 465;" xml:space="preserve">
<g>
	<path d="M200.623,279.207c-4.143,0-7.5,3.358-7.5,7.5s3.357,7.5,7.5,7.5h63.754c4.143,0,7.5-3.358,7.5-7.5s-3.357-7.5-7.5-7.5
		h-8.772V91.302c0-4.142-3.357-7.5-7.5-7.5h-31.209c-3.139,0-5.946,1.955-7.034,4.899l-16.272,44.008
		c-0.852,2.301-0.522,4.874,0.88,6.887s3.7,3.214,6.154,3.214h8.772v136.397H200.623z M216.896,127.81h-5.503l10.726-29.008h18.486
		v180.405h-16.209V135.31C224.396,131.167,221.038,127.81,216.896,127.81z"/>
	<path d="M437.151,147.079c-4.621-11.088-28.278-67.01-40.249-78.981c-11.972-11.971-67.893-35.628-78.981-40.249
		C302.244,21.315,249.752,0,232.5,0s-69.744,21.315-85.421,27.849c-11.089,4.621-67.01,28.278-78.981,40.249
		C56.127,80.069,32.47,135.99,27.849,147.079C21.315,162.756,0,215.249,0,232.5s21.315,69.744,27.849,85.421
		c4.621,11.088,28.278,67.01,40.249,78.981c11.972,11.971,67.893,35.628,78.981,40.249C162.756,443.685,215.248,465,232.5,465
		s69.744-21.315,85.421-27.849c11.089-4.621,67.01-28.278,78.981-40.249c11.971-11.971,35.628-67.893,40.249-78.981
		C443.685,302.244,465,249.751,465,232.5S443.685,162.756,437.151,147.079z M423.305,312.151
		c-17.417,41.796-31.802,68.937-37.01,74.145c-5.207,5.208-32.348,19.592-74.144,37.01C274.435,439.023,241.681,450,232.5,450
		s-41.935-10.977-79.651-26.694c-41.796-17.417-68.937-31.802-74.144-37.01c-5.208-5.208-19.593-32.348-37.01-74.145
		C25.978,274.434,15,241.68,15,232.5s10.978-41.934,26.695-79.651c17.417-41.796,31.802-68.937,37.01-74.145
		c5.207-5.208,32.348-19.592,74.144-37.01C190.565,25.977,223.319,15,232.5,15s41.935,10.977,79.651,26.694
		c41.796,17.417,68.937,31.802,74.144,37.01c5.208,5.208,19.593,32.348,37.01,74.145C439.022,190.566,450,223.32,450,232.5
		S439.022,274.434,423.305,312.151z"/>
	<path d="M123.798,351.498c-0.514,4.11,2.401,7.858,6.512,8.373l39.856,4.985c14.848,6.99,30.741,11.45,47.045,13.172l-8.853,10.676
		c-2.644,3.188-2.202,7.917,0.986,10.561c3.188,2.645,7.916,2.203,10.561-0.986l12.595-15.189l12.595,15.189
		c1.483,1.789,3.622,2.713,5.777,2.713c1.687,0,3.384-0.566,4.783-1.727c3.188-2.644,3.63-7.372,0.986-10.561l-8.853-10.676
		c16.305-1.722,32.198-6.183,47.045-13.172l39.856-4.985c4.11-0.514,7.025-4.263,6.512-8.373c-0.515-4.111-4.271-7.028-8.373-6.511
		l-7.971,0.997c7.811-6.352,14.926-13.486,21.253-21.296l33.722-21.77c3.48-2.247,4.48-6.889,2.233-10.369
		c-2.246-3.48-6.889-4.479-10.368-2.233l-6.778,4.375c4.303-9.163,7.617-18.685,9.926-28.409l20.949-34.264
		c2.161-3.534,1.048-8.15-2.486-10.311c-3.532-2.161-8.149-1.048-10.311,2.487l-4.202,6.872c-0.097-10.01-1.219-20.032-3.388-29.907
		l3.181-31.715c0.413-4.122-2.593-7.798-6.715-8.211c-4.055-0.411-7.674,2.502-8.182,6.522c-4.467-9.058-9.848-17.615-16.049-25.535
		l-8.621-23.701c-1.415-3.893-5.72-5.901-9.611-4.485c-2.321,0.844-3.964,2.719-4.619,4.917c-3.048-2.477-6.199-4.841-9.457-7.072
		c-3.417-2.34-8.085-1.468-10.426,1.949c-2.341,3.417-1.469,8.085,1.949,10.426c3,2.055,5.884,4.227,8.663,6.497
		c-3.146,0.076-6.028,2.135-6.994,5.31c-1.206,3.962,1.027,8.153,4.99,9.359l22.959,6.991c5.523,7.237,10.243,15.004,14.128,23.144
		l-2.034-1.873c-3.046-2.807-7.791-2.611-10.598,0.435c-2.806,3.047-2.611,7.792,0.436,10.598l22.282,20.524
		c1.904,8.928,2.899,18.058,2.937,27.232l-4.081-10.289c-1.527-3.85-5.886-5.733-9.737-4.206c-3.851,1.527-5.733,5.887-4.206,9.737
		l14.345,36.164c-2.113,8.707-5.147,17.286-9.148,25.594c-0.057,0.119-0.12,0.234-0.178,0.353l0.82-11.496
		c0.294-4.131-2.816-7.72-6.948-8.014c-4.134-0.302-7.72,2.815-8.015,6.948l-2.764,38.78c-5.841,7.038-12.385,13.421-19.497,19.067
		l5.559-9.71c2.058-3.595,0.813-8.177-2.782-10.235c-3.596-2.058-8.179-0.812-10.235,2.782L287.5,351.594
		c-16.993,7.889-35.72,12.23-55,12.246c-19.281-0.015-38.007-4.357-55-12.246l-19.263-33.647c-2.058-3.595-6.64-4.84-10.235-2.782
		c-3.595,2.058-4.84,6.641-2.782,10.235l5.56,9.711c-7.112-5.647-13.656-12.03-19.497-19.068l-2.764-38.78
		c-0.296-4.131-3.877-7.257-8.015-6.948c-4.132,0.294-7.242,3.883-6.948,8.014l0.82,11.497c-0.058-0.119-0.121-0.234-0.178-0.354
		c-4.001-8.309-7.035-16.888-9.148-25.595l14.345-36.164c1.527-3.851-0.355-8.21-4.206-9.737c-3.852-1.525-8.21,0.356-9.737,4.206
		l-4.081,10.289c0.038-9.174,1.033-18.304,2.937-27.232l22.282-20.524c3.047-2.807,3.241-7.551,0.436-10.598
		c-2.805-3.045-7.551-3.241-10.598-0.435l-2.034,1.873c3.885-8.14,8.605-15.907,14.128-23.144l22.959-6.991
		c3.963-1.207,6.196-5.397,4.99-9.359c-0.967-3.174-3.85-5.234-6.994-5.31c2.779-2.27,5.664-4.441,8.663-6.497
		c3.418-2.341,4.29-7.009,1.949-10.426c-2.34-3.417-7.01-4.29-10.426-1.949c-3.258,2.231-6.408,4.596-9.457,7.072
		c-0.654-2.199-2.297-4.073-4.619-4.917c-3.892-1.415-8.196,0.593-9.611,4.485l-8.621,23.701
		c-6.201,7.92-11.582,16.477-16.049,25.535c-0.509-4.022-4.129-6.938-8.182-6.522c-4.122,0.413-7.128,4.089-6.715,8.211
		l3.181,31.715c-2.169,9.875-3.291,19.897-3.388,29.907L82,224.194c-2.161-3.536-6.78-4.648-10.311-2.487
		c-3.534,2.161-4.647,6.777-2.486,10.311l20.949,34.264c2.309,9.725,5.623,19.246,9.926,28.409l-6.777-4.375
		c-3.48-2.247-8.122-1.247-10.368,2.233c-2.247,3.48-1.247,8.123,2.233,10.369l33.722,21.77c6.327,7.81,13.442,14.944,21.253,21.296
		l-7.971-0.997C128.055,344.47,124.313,347.388,123.798,351.498z"/>
	<path d="M187.32,323.357c0,4.142,3.357,7.5,7.5,7.5h75.359c4.143,0,7.5-3.358,7.5-7.5s-3.357-7.5-7.5-7.5H194.82
		C190.678,315.857,187.32,319.215,187.32,323.357z"/>
	<path d="M439.94,231.746c-0.856-8.473-9.964-36.849-25.716-74.69c-15.473-37.173-29.023-63.632-34.412-70.556
		c-0.382-0.49-0.822-0.931-1.313-1.313c-6.924-5.388-33.383-18.939-70.557-34.413c-37.839-15.751-66.216-24.859-74.689-25.715
		c-0.502-0.051-1.006-0.051-1.508,0c-8.474,0.856-36.851,9.964-74.689,25.715C119.883,66.249,93.424,79.799,86.5,85.188
		c-0.49,0.382-0.931,0.822-1.313,1.313c-5.389,6.924-18.939,33.383-34.412,70.556c-15.752,37.841-24.859,66.217-25.716,74.69
		c-0.051,0.501-0.051,1.006,0,1.508c0.856,8.473,9.964,36.849,25.716,74.69c15.473,37.173,29.023,63.632,34.412,70.556
		c0.382,0.49,0.822,0.931,1.313,1.313c5.662,4.406,25.365,14.925,56.622,28.491c3.797,1.65,8.217-0.095,9.866-3.894
		c1.649-3.8-0.094-8.217-3.894-9.866c-29.942-12.996-47.546-22.498-52.62-26.014c-3.83-5.542-15.509-27.09-31.852-66.351
		c-16.526-39.704-23.525-63.551-24.536-69.679c1.011-6.128,8.01-29.975,24.536-69.679c16.339-39.253,28.018-60.801,31.85-66.348
		c5.547-3.832,27.094-15.51,66.348-31.85c39.703-16.526,63.551-23.525,69.68-24.535c6.129,1.01,29.977,8.009,69.68,24.535
		c39.254,16.34,60.801,28.018,66.348,31.85c3.832,5.547,15.511,27.095,31.85,66.348c16.526,39.704,23.525,63.551,24.536,69.679
		c-1.011,6.128-8.01,29.975-24.536,69.679c-16.339,39.253-28.018,60.801-31.85,66.348c-5.547,3.832-27.094,15.51-66.348,31.85
		c-39.868,16.595-63.749,23.583-69.756,24.547c-13.44-1.604-34.032-9.796-55.733-18.781c-3.827-1.584-8.214,0.233-9.799,4.061
		c-1.584,3.827,0.233,8.214,4.061,9.799c24.114,9.983,45.333,18.375,60.794,19.937c0.251,0.025,0.502,0.038,0.754,0.038
		s0.503-0.013,0.754-0.038c8.474-0.856,36.851-9.964,74.689-25.715c37.174-15.474,63.633-29.024,70.557-34.413
		c0.49-0.382,0.931-0.822,1.313-1.313c5.389-6.924,18.939-33.383,34.412-70.556c15.752-37.841,24.859-66.217,25.716-74.69
		C439.991,232.752,439.991,232.248,439.94,231.746z"/>
</g>
<g>
</g>
<g>
</g>
<g>
</g>
<g>
</g>
<g>
</g>
<g>
</g>
<g>
</g>
<g>
</g>
<g>
</g>
<g>
</g>
<g>
</g>
<g>
</g>
<g>
</g>
<g>
</g>
<g>
</g>
</svg>
