<?xml version="1.0" encoding="utf-8"?>
<!-- Svg Vector Icons : http://www.onlinewebfonts.com/icon -->
<!DOCTYPE svg PUBLIC "-//W3C//DTD SVG 1.1//EN" "http://www.w3.org/Graphics/SVG/1.1/DTD/svg11.dtd">
<svg version="1.1" xmlns="http://www.w3.org/2000/svg" xmlns:xlink="http://www.w3.org/1999/xlink" x="0px" y="0px" viewBox="0 0 1000 1000" enable-background="new 0 0 1000 1000" xml:space="preserve">
<metadata> Svg Vector Icons : http://www.onlinewebfonts.com/icon </metadata>
<g><g transform="translate(0.000000,295.000000) scale(0.100000,-0.100000)"><path d="M8163.8,583.6l-5.8-209.4l-116.4-13.6C7601.4,304.4,7194.1,23.2,7008-355c-112.5-226.9-145.5-395.6-133.8-676.8c23.3-556.6,242.4-808.7,905.7-1037.6c100.8-34.9,230.8-73.7,287-87.3l100.8-23.3v-841.7v-843.6l-71.8,13.6c-40.7,7.8-126.1,33-188.1,58.2c-351,141.6-558.5,393.7-618.6,754.4l-25.2,155.1l-267.7,5.8l-267.6,5.8l13.6-122.2c85.3-742.8,552.7-1237.3,1278-1355.6l147.4-23.3v-257.9v-259.9h174.5h174.6v259.9v257.9l102.8,13.6c638.1,81.4,1103.5,455.8,1247,1000.7c40.7,155.2,44.6,492.6,9.7,640c-85.3,347.2-378.2,663.3-769.9,830c-56.2,23.3-209.5,71.8-339.4,106.7l-240.5,65.9l-5.8,781.6l-3.9,781.6l62.1-13.6c285.1-56.2,546.9-318,624.5-626.4l23.3-93.1l265.7-5.8c234.7-3.9,265.7-1.9,265.7,27.1c0,64-120.2,389.8-199.8,539.1c-56.3,106.7-129.9,203.6-236.6,312.2c-182.3,188.1-347.1,277.3-624.5,345.2l-180.4,42.7v207.5v209.4h-174.6h-172.6L8163.8,583.6z M8167.7-876.7c0-494.5-5.8-737-19.4-737c-50.4,0-337.5,124.1-438.3,192c-193.9,124.1-267.6,277.3-265.7,545c3.9,354.9,178.4,589.6,525.6,700.1c60.1,19.4,129.9,34.9,155.1,34.9l42.7,1.9V-876.7z M8939.5-2435.9c137.7-69.8,256-182.3,323.9-306.4c48.5-87.3,58.2-129.9,64-279.2c19.4-436.4-186.2-713.7-601.2-812.6c-67.9-15.5-141.6-29.1-164.8-29.1h-44.6v793.2v795.1l161-54.3C8765-2360.3,8883.3-2406.8,8939.5-2435.9z"/><path d="M100-1982.1V-4290h232.7h232.7V-3233v1057h911.5h911.5v-1057V-4290h232.7h232.7v2307.8V325.7h-232.7h-232.7v-989.1v-989.1h-911.5H565.4v989.1v989.1H332.7H100V-1982.1z"/><path d="M3610.2-1982.1V-4290h232.7h232.7v812.6v812.6l285.1,353l283.1,354.9l34.9-65.9c19.4-36.8,300.6-558.5,622.5-1161.7L5889-4280.2l294.8-5.8l294.8-5.8l-46.6,83.4c-1150,2077-1466.1,2664.7-1446.8,2697.6C5012.4-1468.2,6335,222.9,6389.3,283l38.8,42.7h-302.5H5823L4950.3-820.5l-874.6-1146.2v1146.2V325.7h-232.7h-232.7V-1982.1z"/></g></g>
</svg>