<?xml version="1.0" encoding="UTF-8" standalone="no"?>
<!-- Created with Inkscape (http://www.inkscape.org/) -->
<svg
   xmlns:dc="http://purl.org/dc/elements/1.1/"
   xmlns:cc="http://creativecommons.org/ns#"
   xmlns:rdf="http://www.w3.org/1999/02/22-rdf-syntax-ns#"
   xmlns:svg="http://www.w3.org/2000/svg"
   xmlns="http://www.w3.org/2000/svg"
   xmlns:xlink="http://www.w3.org/1999/xlink"
   xmlns:sodipodi="http://sodipodi.sourceforge.net/DTD/sodipodi-0.dtd"
   xmlns:inkscape="http://www.inkscape.org/namespaces/inkscape"
   id="svg2"
   sodipodi:version="0.32"
   inkscape:version="0.46"
   width="96"
   height="86"
   version="1.0"
   sodipodi:docname="NIS symbol.svg"
   inkscape:output_extension="org.inkscape.output.svg.inkscape">
  <metadata
     id="metadata7">
    <rdf:RDF>
      <cc:Work
         rdf:about="">
        <dc:format>image/svg+xml</dc:format>
        <dc:type
           rdf:resource="http://purl.org/dc/dcmitype/StillImage" />
      </cc:Work>
    </rdf:RDF>
  </metadata>
  <defs
     id="defs5">
    <inkscape:perspective
       sodipodi:type="inkscape:persp3d"
       inkscape:vp_x="0 : 526.18109 : 1"
       inkscape:vp_y="0 : 1000 : 0"
       inkscape:vp_z="744.09448 : 526.18109 : 1"
       inkscape:persp3d-origin="372.04724 : 350.78739 : 1"
       id="perspective9" />
  </defs>
  <sodipodi:namedview
     inkscape:window-height="943"
     inkscape:window-width="1280"
     inkscape:pageshadow="2"
     inkscape:pageopacity="0.0"
     guidetolerance="10.0"
     gridtolerance="10.0"
     objecttolerance="10.0"
     borderopacity="1.0"
     bordercolor="#666666"
     pagecolor="#ffffff"
     id="base"
     showgrid="false"
     inkscape:zoom="1"
     inkscape:cx="23.88952"
     inkscape:cy="-165.81922"
     inkscape:window-x="-4"
     inkscape:window-y="-4"
     inkscape:current-layer="svg2" />
  <text
     xml:space="preserve"
     style="font-size:16px;font-style:normal;font-variant:normal;font-weight:normal;font-stretch:normal;text-align:start;line-height:125%;writing-mode:lr-tb;text-anchor:start;fill:#000000;fill-opacity:1;stroke:none;stroke-width:1px;stroke-linecap:butt;stroke-linejoin:miter;stroke-opacity:1;font-family:David;-inkscape-font-specification:David"
     x="-74.68058"
     y="41.606739"
     id="text2382"
     sodipodi:linespacing="125%"><tspan
       sodipodi:role="line"
       id="tspan2384"
       x="-74.68058"
       y="41.606739" /></text>
  <text
     xml:space="preserve"
     style="font-size:20px;font-style:normal;font-variant:normal;font-weight:normal;font-stretch:normal;text-align:start;line-height:125%;writing-mode:lr-tb;text-anchor:start;fill:#000000;fill-opacity:1;stroke:none;stroke-width:1px;stroke-linecap:butt;stroke-linejoin:miter;stroke-opacity:1;font-family:David;-inkscape-font-specification:David"
     x="-117.95954"
     y="-70.007431"
     id="text2390"
     sodipodi:linespacing="125%"><tspan
       sodipodi:role="line"
       id="tspan2392"
       x="-117.95954"
       y="-70.007431" /></text>
  <text
     xml:space="preserve"
     style="font-size:14px;font-style:normal;font-variant:normal;font-weight:normal;font-stretch:normal;text-align:start;line-height:125%;writing-mode:lr-tb;text-anchor:start;fill:#000000;fill-opacity:1;stroke:none;stroke-width:1px;stroke-linecap:butt;stroke-linejoin:miter;stroke-opacity:1;font-family:Tahoma;-inkscape-font-specification:Tahoma"
     x="-40.512978"
     y="499.45267"
     id="text2394"
     sodipodi:linespacing="125%"><tspan
       sodipodi:role="line"
       id="tspan2396"
       x="-40.512978"
       y="499.45267"></tspan></text>
  <path
     style="font-size:14px;font-style:normal;font-variant:normal;font-weight:normal;font-stretch:normal;text-align:start;line-height:125%;writing-mode:lr-tb;text-anchor:start;fill:#000000;fill-opacity:1;stroke:none;stroke-width:1px;stroke-linecap:butt;stroke-linejoin:miter;stroke-opacity:1;font-family:Tahoma;-inkscape-font-specification:Tahoma"
     d="M 9.65235,82.94433 C 9.65234,83.51855 9.58626,83.99935 9.45411,84.38672 C 9.32193,84.77409 9.12825,85.08626 8.87305,85.32324 C 8.61328,85.56478 8.29313,85.73795 7.9126,85.84277 C 7.53206,85.94759 7.08886,86 6.58301,86 L 2.82325,86 L 2.82325,80.76367 L 4.00586,80.76367 L 4.00586,84.66015 L 6.55567,84.66015 C 6.92936,84.66015 7.24039,84.62142 7.48877,84.54394 C 7.73714,84.46647 7.93196,84.35254 8.07325,84.20214 C 8.22363,84.04264 8.32731,83.86149 8.38428,83.65869 C 8.44124,83.45589 8.46972,83.2041 8.46973,82.90332 L 8.46973,77.3457 L 9.65235,77.3457 L 9.65235,82.94433 z M 6.82911,82.58203 L 5.64649,82.58203 L 5.64649,80.44238 C 5.64648,80.15528 5.618,79.90576 5.56104,79.69384 C 5.50407,79.48194 5.40039,79.29851 5.25,79.14355 C 5.10872,78.99317 4.91048,78.87924 4.65528,78.80175 C 4.40006,78.72429 4.09245,78.68555 3.73243,78.68554 L 1.18262,78.68554 L 1.18262,86 L 0,86 L 0,77.3457 L 3.75977,77.3457 C 4.26562,77.34571 4.70996,77.39926 5.09278,77.50634 C 5.47558,77.61345 5.79459,77.78549 6.04981,78.02246 C 6.31412,78.26856 6.51009,78.58871 6.6377,78.98291 C 6.7653,79.37712 6.8291,79.84994 6.82911,80.40136 L 6.82911,82.58203 z"
     id="text2406" />
  <path
     id="path2411"
     d="M 9.65235,82.94433 C 9.65234,83.51855 9.58626,83.99935 9.45411,84.38672 C 9.32193,84.77409 9.12825,85.08626 8.87305,85.32324 C 8.61328,85.56478 8.29313,85.73795 7.9126,85.84277 C 7.53206,85.94759 7.08886,86 6.58301,86 L 2.82325,86 L 2.82325,80.76367 L 4.00586,80.76367 L 4.00586,84.66015 L 6.55567,84.66015 C 6.92936,84.66015 7.24039,84.62142 7.48877,84.54394 C 7.73714,84.46647 7.93196,84.35254 8.07325,84.20214 C 8.22363,84.04264 8.32731,83.86149 8.38428,83.65869 C 8.44124,83.45589 8.46972,83.2041 8.46973,82.90332 L 8.46973,77.3457 L 9.65235,77.3457 L 9.65235,82.94433 z M 6.82911,82.58203 L 5.64649,82.58203 L 5.64649,80.44238 C 5.64648,80.15528 5.618,79.90576 5.56104,79.69384 C 5.50407,79.48194 5.40039,79.29851 5.25,79.14355 C 5.10872,78.99317 4.91048,78.87924 4.65528,78.80175 C 4.40006,78.72429 4.09245,78.68555 3.73243,78.68554 L 1.18262,78.68554 L 1.18262,86 L 0,86 L 0,77.3457 L 3.75977,77.3457 C 4.26562,77.34571 4.70996,77.39926 5.09278,77.50634 C 5.47558,77.61345 5.79459,77.78549 6.04981,78.02246 C 6.31412,78.26856 6.51009,78.58871 6.6377,78.98291 C 6.7653,79.37712 6.8291,79.84994 6.82911,80.40136 L 6.82911,82.58203 z"
     style="font-size:14px;font-style:normal;font-variant:normal;font-weight:normal;font-stretch:normal;text-align:start;line-height:125%;writing-mode:lr-tb;text-anchor:start;fill:#000000;fill-opacity:1;stroke:none;stroke-width:1px;stroke-linecap:butt;stroke-linejoin:miter;stroke-opacity:1;font-family:Tahoma;-inkscape-font-specification:Tahoma" />
  <use
     x="0"
     y="0"
     xlink:href="#path2411"
     id="use2413"
     transform="matrix(9.9457645,0,0,9.9372566,0,-768.60407)"
     width="9.6523504"
     height="8.6542997" />
</svg>
