<?xml version="1.0" encoding="iso-8859-1"?>
<!-- Generator: Adobe Illustrator 19.0.0, SVG Export Plug-In . SVG Version: 6.00 Build 0)  -->
<svg version="1.1" id="Layer_1" xmlns="http://www.w3.org/2000/svg" xmlns:xlink="http://www.w3.org/1999/xlink" x="0px" y="0px"
	 viewBox="0 0 485 485" style="enable-background:new 0 0 485 485;" xml:space="preserve">
<g>
	<path d="M156.619,244.242c30.89-21.789,51.246-58.722,51.246-100.535c0-66.834-51.98-121.207-115.887-121.207L0,22.597V462.5h30
		V264.887h81.993c47.35,0,85.872,40.915,85.872,91.207V462.5h30V356.094C227.865,305.796,198.422,262.559,156.619,244.242z
		 M30,234.887V52.565L91.993,52.5c47.35,0,85.872,40.915,85.872,91.207c0,50.277-38.522,91.18-85.872,91.18H30z"/>
	<polygon points="449.79,22.5 371.217,221.827 292.33,22.5 257.135,22.5 257.135,462.5 287.135,462.5 287.135,90.896 356.039,265 
		386.445,265 455,91.086 455,462.5 485,462.5 485,22.5 	"/>
</g>
<g>
</g>
<g>
</g>
<g>
</g>
<g>
</g>
<g>
</g>
<g>
</g>
<g>
</g>
<g>
</g>
<g>
</g>
<g>
</g>
<g>
</g>
<g>
</g>
<g>
</g>
<g>
</g>
<g>
</g>
</svg>
