<svg id="Layer_1" data-name="Layer 1" xmlns="http://www.w3.org/2000/svg" viewBox="0 0 512 512"><title>nigeria</title><path d="M0,256C0,114.61,114.61,0,256,0S512,114.63,512,256,397.38,512,256,512,0,397.39,0,256Z" fill="#0086cd"/><path d="M157.7,289.73V263.58h23V246.33h-23V220.18h23v-58.3h41l33.18,58.3h41.85v-58.3h36.59v58.3H354.3v26.15H333.38v17.25H354.3v26.15H333.38v60.39H294.16l-34.77-60.39H217.32v60.39H180.73V289.73Zm59.62-69.55h2.09l-2.09-3.66Zm0,43.4h26.91l-9.93-17.25h-17Zm62.49,0h17V246.33H270.13Zm17,29.79v-3.65h-2.09Z" fill="#fff"/></svg>