<svg id="Layer_1" data-name="Layer 1" xmlns="http://www.w3.org/2000/svg" viewBox="0 0 122.88 63.74"><title>new-zealand-dollar</title><path d="M100,57.78l-.67,0q-2.19-.14-4.32-.42c-1.41-.18-2.78-.4-4.08-.63s-2.56-.51-3.76-.83V45.12c1.58.14,3.29.25,5.12.35s3.7.16,5.58.21,3.64.07,5.27.07A17.79,17.79,0,0,0,107,45.4a4.72,4.72,0,0,0,2.3-1.12,2.83,2.83,0,0,0,.77-2.09v-.84a2.64,2.64,0,0,0-1.08-2.3,4.3,4.3,0,0,0-2.55-.77h-3.69q-8.08,0-12.28-3.55T86.27,22.8V20.5q0-7.66,4.6-11.47A17.5,17.5,0,0,1,100,5.47V0h7.53V5.32c.94,0,1.87.13,2.75.22,1.93.21,3.75.47,5.44.77s3.22.62,4.57.94V18c-2.14-.18-4.55-.34-7.22-.45s-5.1-.18-7.28-.18a20.14,20.14,0,0,0-3.49.28,4.39,4.39,0,0,0-2.37,1.12,3.3,3.3,0,0,0-.84,2.44v.7a3.22,3.22,0,0,0,1.12,2.65,5.37,5.37,0,0,0,3.41.9h4.61a16.23,16.23,0,0,1,8.12,1.85,12.09,12.09,0,0,1,4.88,5,15.57,15.57,0,0,1,1.64,7.22v2.3c0,4.41-.77,7.79-2.3,10.11A11.29,11.29,0,0,1,114,56.66a32.74,32.74,0,0,1-6.48,1.09v6H100v-6ZM0,57.46V5.65H10.74l18.2,28.87V5.65H42.47V57.46H31.73L13.53,28.59V57.46Zm47.14,0V46.72L66.46,17.78H47.14V5.65H82.92V16.39L63.6,45.33H82.92V57.46Z"/></svg>