<?xml version="1.0" encoding="iso-8859-1"?>
<!-- Generator: Adobe Illustrator 19.0.0, SVG Export Plug-In . SVG Version: 6.00 Build 0)  -->
<svg version="1.1" id="Layer_1" xmlns="http://www.w3.org/2000/svg" xmlns:xlink="http://www.w3.org/1999/xlink" x="0px" y="0px"
	 viewBox="0 0 512 512" style="enable-background:new 0 0 512 512;" xml:space="preserve">
<path style="fill:#3D6DEB;" d="M446.061,186.197h-32.701c1.094-7.609,1.671-15.382,1.671-23.288c0-7.896-0.576-15.659-1.666-23.257
	h32.697c12.853,0,23.273-10.42,23.273-23.273s-10.42-23.273-23.273-23.273h-46.764C373.108,38.108,316.985,0,252.121,0
	c-0.323,0-0.645,0.006-0.967,0.02h-138.55c-0.04,0-0.079-0.006-0.119-0.006c-12.853,0-23.273,10.42-23.273,23.273v0.006v69.814
	H65.939c-12.853,0-23.273,10.42-23.273,23.273s10.42,23.273,23.273,23.273h23.273v46.545H65.939
	c-12.853,0-23.273,10.42-23.273,23.273c0,12.853,10.42,23.273,23.273,23.273h23.273v69.803v186.182
	c0,12.853,10.42,23.273,23.273,23.273s23.273-10.42,23.273-23.273V325.818h116.364c64.852,0,120.965-38.094,147.163-93.075h46.777
	c12.853,0,23.273-10.42,23.273-23.273C469.333,196.617,458.913,186.197,446.061,186.197z M135.758,46.566h116.364
	c0.295,0,0.59-0.005,0.881-0.017c37.634,0.281,71.064,18.525,92.151,46.558H135.758V46.566z M135.758,139.652h230.391
	c1.53,7.517,2.337,15.295,2.337,23.257c0,7.973-0.808,15.76-2.344,23.288H135.758V139.652z M252.121,279.273H135.758v-46.53h209.379
	C323.885,260.977,290.102,279.273,252.121,279.273z"/>
<g>
</g>
<g>
</g>
<g>
</g>
<g>
</g>
<g>
</g>
<g>
</g>
<g>
</g>
<g>
</g>
<g>
</g>
<g>
</g>
<g>
</g>
<g>
</g>
<g>
</g>
<g>
</g>
<g>
</g>
</svg>
