<?xml version="1.0" encoding="utf-8"?>
<!-- Svg Vector Icons : http://www.onlinewebfonts.com/icon -->
<!DOCTYPE svg PUBLIC "-//W3C//DTD SVG 1.1//EN" "http://www.w3.org/Graphics/SVG/1.1/DTD/svg11.dtd">
<svg version="1.1" xmlns="http://www.w3.org/2000/svg" xmlns:xlink="http://www.w3.org/1999/xlink" x="0px" y="0px" viewBox="0 0 1000 1000" enable-background="new 0 0 1000 1000" xml:space="preserve">
<metadata> Svg Vector Icons : http://www.onlinewebfonts.com/icon </metadata>
<g><g transform="translate(0.000000,511.000000) scale(0.100000,-0.100000)"><path d="M100,661.1c0-2379.7,8.2-3668.6,20.4-3780.9c61.3-475.9,241-745.6,588.3-882.4c100.1-40.8,155.2-47,402.4-47c218.6-2,314.6,6.1,404.4,34.7c138.9,42.9,134.8,12.3,57.2,433l-55.2,306.4l-130.7-6.1c-159.3-8.2-239,32.7-298.2,151.1c-36.8,77.6-38.8,177.7-44.9,3742.1l-4.1,3660.4H569.8H100V661.1z"/><path d="M9048.8,4017.2c-300.3-85.8-467.8-318.7-447.3-623c18.4-239,134.8-402.4,363.6-508.6c151.2-67.4,386.1-71.5,551.5-6.1c373.8,145,502.5,608.7,259.4,927.4C9633,3994.7,9306.2,4088.7,9048.8,4017.2z"/><path d="M4828.7,1786.6c-527-81.7-990.7-330.9-1380.8-735.4C2982.2,567.2,2716.6-64,2651.2-846.3c-53.1-604.6,53.1-1233.8,288-1738.3c349.3-749.6,996.8-1252.1,1838.4-1429.8c247.2-51.1,813-51.1,1092.8,2.1c243.1,44.9,559.7,145,780.3,247.2c204.3,93.9,496.4,259.4,496.4,281.9c0,14.3-298.2,578.1-318.6,604.6c-2.1,4.1-61.3-26.6-130.7-69.5c-408.5-249.2-898.8-373.8-1366.5-351.3c-909,44.9-1532,621-1719.9,1593.3c-20.4,110.3-38.8,241-38.8,290.1v91.9h1887.4h1885.4l14.3,108.3c18.4,165.5,14.3,680.2-8.2,872.2c-116.4,960-522.9,1611.6-1207.2,1940.5c-288,136.9-522.9,187.9-917.1,194C5041.1,1794.8,4863.4,1792.8,4828.7,1786.6z M5466,1034.9c643.4-120.5,1019.3-657.7,1080.5-1538.1l14.3-208.4H5055.4H3550l14.3,108.3c40.8,328.9,202.2,747.6,384,1002.9c51.1,71.5,161.4,192,245.1,271.7C4540.7,996.1,4992.1,1124.8,5466,1034.9z"/><path d="M8775.1,1664.1c-8.2-6.1-14.3-1266.4-14.3-2798.4v-2784.1h469.8h469.8V-1120v2798.4h-455.5C8993.6,1678.4,8781.2,1672.2,8775.1,1664.1z"/></g></g>
</svg>