<svg id="Layer_1" data-name="Layer 1" xmlns="http://www.w3.org/2000/svg" viewBox="0 0 122.88 91.6"><title>saudi-arabia-riyal</title><path d="M76,64.84h0l6.8,0h.91l7.93,0a1.21,1.21,0,0,0,1.2-1.13c1.3-18.61-.16-26.47-5.77-31.15a1.26,1.26,0,0,0-.77-.27h-.14a1.2,1.2,0,0,0-.83.49c-3.16,4.25-3.07,8.09.29,12.45,1.22,1.59,1.69,3.89,2.25,6.62.17.85.35,1.72.56,2.62l-5.75,0h-.5l-5.86,0c-3.4,0-6.19,0-8.76.12h-.4c-3.36,0-4.83-1.22-5.07-4.19-.33-3.94-.7-8.56-1-13-.46-5.76-.9-11.17-1.17-14.25-.48-5.34-3.44-14-3.78-15A1.2,1.2,0,0,0,55,7.27a1.22,1.22,0,0,0-1.15.82c-.26.78-.63,1.6-1,2.41-.88,1.94-1.78,4-1.58,6,.43,4.43,1.23,8.87,2,13.23l0,.15c.49,2.73,1,5.55,1.41,8.33s.71,5.73,1,8.33c.34,3.29.69,6.69,1.24,10.06.85,5.16,3.74,8,8.14,8.13,3.24.07,6.72.1,11,.1ZM118.79,49.1l-.72-.86c-1.39-1.79-5-6.35-8.21-10.05a4.63,4.63,0,0,0-6.34-.42,4.51,4.51,0,0,0-.42,6.35c2.38,2.71,5,6,6.88,8.36.33.37.59.71.84,1.05s.45.61.72.93c2.36,2.73,5.7,8.21,1.66,14.28-7.43,11.16-16,16.83-25.53,16.83h0c-.75,0-1.51,0-2.28-.11a46,46,0,0,1-5.66-1L78.5,84.2c-.52-.1-1-.2-1.44-.3a1.64,1.64,0,0,0-1.85,1,1.23,1.23,0,0,0,.86,1.42c2,.57,4.19,1.36,6.1,2C86.48,90,91,91.6,95.37,91.6c.35,0,.69,0,1,0,9.25-.56,15.66-7.15,22.38-16.8.16-.17,4-4.26,4.08-12.48a20.64,20.64,0,0,0-4.09-13.19ZM47.53,9.31c-.25-1.89-1.64-3.57-4.26-5.13a17.19,17.19,0,0,1-2.86-2.41c-.49-.48-1-1-1.56-1.46A1.2,1.2,0,0,0,38,0h-.19A1.22,1.22,0,0,0,37,.6c-2.92,5-1.85,9.39-.62,14.45l.28,1.18c2.27,9.54,3.21,19.6,4.13,29.35l.34,3.62c.59,6.09-.15,10.14-2.3,12.74s-6.19,4.19-12.77,4.8c-1.14.11-2.26.12-3.21.12H20.49c-6,0-10.39-1.64-12.65-4.72a6,6,0,0,1-1.38-4.3A33.8,33.8,0,0,1,11.17,46.1a2.76,2.76,0,0,0-.79-3.83A2.85,2.85,0,0,0,6.56,43C2.68,48.51.82,56.25.48,57.76a14.88,14.88,0,0,0,2,12.17,15.37,15.37,0,0,0,11,6.3,62,62,0,0,0,7.59.43c2.27,0,4.71-.1,7.44-.3,6.57-.49,11.51-2.65,14.7-6.43,3.43-4.06,4.8-9.94,4.09-17.48C46.76,46,46,39.6,45.28,33.38L45.23,33c-.53-4.53-1.08-9.21-1.56-13.82a4.69,4.69,0,0,1,.58-3.11c2.51-2.58,3.55-4.72,3.28-6.77ZM74.66,74.82l4.81,5.48a1.14,1.14,0,0,0,.77.41h.14a1.18,1.18,0,0,0,.82-.33l5.22-4.87a1.21,1.21,0,0,0,.09-1.68l-5.13-5.9a1.26,1.26,0,0,0-.91-.41,1.24,1.24,0,0,0-.82.32l-5.27,4.86a1.26,1.26,0,0,0-.33.58l-4.76-5.65a1.28,1.28,0,0,0-.93-.43,1.17,1.17,0,0,0-.81.32l-5.23,4.75a1.21,1.21,0,0,0-.1,1.69l5.2,6a1.26,1.26,0,0,0,.89.42h0a1.13,1.13,0,0,0,.81-.32l5.18-4.7a1.16,1.16,0,0,0,.33-.6Z"/></svg>