<?xml version="1.0" encoding="iso-8859-1"?>
<!-- Generator: Adobe Illustrator 19.0.0, SVG Export Plug-In . SVG Version: 6.00 Build 0)  -->
<svg version="1.1" id="Layer_1" xmlns="http://www.w3.org/2000/svg" xmlns:xlink="http://www.w3.org/1999/xlink" x="0px" y="0px"
	 viewBox="0 0 512 512" style="enable-background:new 0 0 512 512;" xml:space="preserve">
<circle style="fill:#CFF09E;" cx="255.997" cy="255.997" r="167.991"/>
<g>
	<path style="fill:#507C5C;" d="M256,0c-7.664,0-13.877,6.213-13.877,13.877S248.336,27.753,256,27.753
		c57.945,0,110.905,21.716,151.199,57.422l-32.781,32.781C341.468,89.6,299.928,74.132,256,74.132
		c-45.156,0-86.517,16.549-118.35,43.892L95.044,75.42c-0.075-0.075-0.158-0.139-0.235-0.212c-0.071-0.075-0.132-0.154-0.205-0.228
		c-5.417-5.419-14.206-5.419-19.624,0C26.628,123.332,0,187.62,0,256c0,141.159,114.841,256,256,256
		c68.38,0,132.667-26.628,181.02-74.98C485.372,388.668,512,324.38,512,256C512,114.841,397.159,0,256,0z M365.043,147.093
		c5.416,5.423,14.203,5.429,19.624,0.011c0.402-0.402,0.766-0.828,1.109-1.264c0.029-0.029,0.061-0.053,0.09-0.082l40.957-40.957
		c32.834,37.054,53.823,84.82,56.987,137.322h-15.439c-7.664,0-13.877,6.213-13.877,13.877s6.213,13.877,13.877,13.877h15.443
		c-3.047,51.144-22.904,99.082-56.912,137.403l-32.929-32.929c27.344-31.832,43.892-73.193,43.892-118.35
		c0-7.664-6.213-13.877-13.877-13.877s-13.877,6.213-13.877,13.877c0,84.978-69.135,154.115-154.115,154.115
		S101.883,340.979,101.883,256s69.135-154.115,154.115-154.115C297.201,101.885,335.927,117.941,365.043,147.093z M256,453.159
		c-7.664,0-13.877,6.213-13.877,13.877v16.777c-52.502-3.165-100.269-24.154-137.322-56.987l32.849-32.849
		c31.833,27.344,73.193,43.892,118.35,43.892s86.517-16.549,118.35-43.892l32.929,32.929
		c-38.319,34.009-86.259,53.867-137.403,56.912v-16.782C269.877,459.371,263.664,453.159,256,453.159z M28.188,269.877h46.47
		c3.011,39.73,18.85,75.932,43.367,104.473l-32.85,32.849C52.342,370.146,31.353,322.379,28.188,269.877z M85.096,104.72
		l32.929,32.929c-24.517,28.542-40.355,64.743-43.367,104.473H28.182C31.229,190.979,51.087,143.041,85.096,104.72z"/>
	<path style="fill:#507C5C;" d="M317.053,244.958v-38.054c9.396,2.105,14.421,7.428,14.935,15.835
		c0.103,1.675,1.375,2.986,2.897,2.986h15.198c0.748,0,1.457-0.312,1.998-0.878c0.622-0.651,0.955-1.568,0.91-2.516
		c-0.985-21.656-14.074-35.955-35.938-39.31v-12.687c0-1.765-1.303-3.201-2.907-3.201h-15.196c-1.603,0-2.906,1.436-2.906,3.201
		v12.687c-22.89,3.508-35.999,18.79-35.999,42.01s13.109,38.502,35.999,42.009v38.054c-9.396-2.105-14.421-7.428-14.935-15.835
		c-0.103-1.675-1.375-2.986-2.897-2.986h-15.198c-0.747,0-1.456,0.312-1.997,0.878c-0.622,0.651-0.955,1.568-0.91,2.516
		c0.985,21.656,14.074,35.954,35.938,39.31v12.687c0,1.765,1.303,3.201,2.906,3.201h15.196c1.603,0,2.907-1.436,2.907-3.201v-12.687
		c22.89-3.508,35.999-18.79,35.999-42.01C353.052,263.747,339.943,248.466,317.053,244.958z M332.043,286.969
		c0,4.073,0.001,14.77-14.99,18.127v-36.254C332.044,272.2,332.043,282.896,332.043,286.969z M281.054,225.031
		c0-4.073-0.001-14.77,14.99-18.127v36.253C281.053,239.8,281.054,229.104,281.054,225.031z"/>
	<path style="fill:#507C5C;" d="M215.316,244.865l-19.541-1.532c-15.818-3.143-15.818-14.156-15.818-18.302
		c0-3.956,0-13.222,11.887-17.261c2.004-0.681,4.228-1.027,6.612-1.027h14.289c2.211,0,4.391,0.371,6.518,1.113l0.254,0.082
		c7.105,2.567,10.931,7.546,11.376,14.802c0.103,1.675,1.375,2.986,2.897,2.986h15.198c0.748,0,1.457-0.312,1.997-0.878
		c0.622-0.651,0.955-1.567,0.91-2.516c-0.813-17.887-9.919-30.921-25.637-36.702c-4.876-1.793-10.306-2.703-16.143-2.703h-9.267
		c-6.235,0-12.03,1.041-17.227,3.093c-15.912,6.285-24.676,20.141-24.676,39.013c0,23.421,13.338,38.766,36.639,42.103l19.541,1.532
		c15.819,3.144,15.819,14.157,15.819,18.302c0,3.552,0,11.87-9.453,16.288c-2.839,1.328-6.075,2.001-9.617,2.001h-12.862
		c-3.482,0-6.666-0.651-9.465-1.936c-5.924-2.718-9.134-7.449-9.539-14.061c-0.103-1.675-1.375-2.986-2.897-2.986h-15.198
		c-0.748,0-1.457,0.312-1.998,0.878c-0.622,0.651-0.955,1.568-0.91,2.516c0.813,17.886,9.919,30.92,25.637,36.702
		c4.873,1.793,10.305,2.702,16.143,2.703h9.267c6.235,0,12.03-1.041,17.227-3.093c15.912-6.285,24.676-20.141,24.676-39.013
		C251.955,263.546,238.618,248.203,215.316,244.865z"/>
</g>
<g>
</g>
<g>
</g>
<g>
</g>
<g>
</g>
<g>
</g>
<g>
</g>
<g>
</g>
<g>
</g>
<g>
</g>
<g>
</g>
<g>
</g>
<g>
</g>
<g>
</g>
<g>
</g>
<g>
</g>
</svg>
