<?xml version="1.0" encoding="iso-8859-1"?>
<!-- Generator: Adobe Illustrator 19.0.0, SVG Export Plug-In . SVG Version: 6.00 Build 0)  -->
<svg version="1.1" id="Layer_1" xmlns="http://www.w3.org/2000/svg" xmlns:xlink="http://www.w3.org/1999/xlink" x="0px" y="0px"
	 viewBox="0 0 494 494" style="enable-background:new 0 0 494 494;" xml:space="preserve">
<g>
	<path style="fill:#2488FF;" d="M302.323,240.252c26.525-22.232,43.529-56.344,43.529-94.524c0-60.672-42.93-111.074-98.752-119.867
		V0h-40v24.5h-78.933v445H207.1V494h40v-24.5h2.571c64.051,0,116.161-54.371,116.161-121.203
		C365.833,301.219,339.986,260.323,302.323,240.252z M305.853,145.728c0,38.388-25.122,70.617-58.752,79.037V66.666
		C280.731,75.089,305.853,107.328,305.853,145.728z M168.167,64.5H207.1v162.569h-38.933V64.5z M168.167,429.5V267.069H207.1V429.5
		H168.167z M249.671,429.5H247.1V267.069h2.571c41.996,0,76.161,36.439,76.161,81.228C325.833,393.073,291.667,429.5,249.671,429.5z
		"/>
</g>
<g>
</g>
<g>
</g>
<g>
</g>
<g>
</g>
<g>
</g>
<g>
</g>
<g>
</g>
<g>
</g>
<g>
</g>
<g>
</g>
<g>
</g>
<g>
</g>
<g>
</g>
<g>
</g>
<g>
</g>
</svg>
