<?xml version="1.0" encoding="utf-8"?><svg version="1.1" id="Layer_1" xmlns="http://www.w3.org/2000/svg" xmlns:xlink="http://www.w3.org/1999/xlink" x="0px" y="0px" viewBox="0 0 110.18 122.88" style="enable-background:new 0 0 110.18 122.88" xml:space="preserve"><g><path d="M0,77.92V61.44l13.04-5.92V44.36L0,50.28V33.81l13.04-5.92V0h34.32v12.36l18.19-8.24v16.48l-18.19,8.24v11.16l18.19-8.24 v16.48l-18.19,8.24v37.93c5.32,0,9.75-0.86,13.36-2.6c3.6-1.74,6.49-4.15,8.67-7.26c2.17-3.09,3.75-6.78,4.69-11.04 c0.94-4.23,1.43-8.9,1.43-13.93h34.67c0,9.64-1.29,18.36-3.86,26.17s-6.46,14.44-11.67,19.94c-5.18,5.49-11.73,9.72-19.56,12.73 c-7.87,3-17.11,4.49-27.75,4.49H13.04V72L0,77.92L0,77.92z"/></g></svg>